<svg width="340" height="110" viewBox="0 0 340 110" fill="none" xmlns="http://www.w3.org/2000/svg">
<path d="M38.0938 44.9375L12.375 57.5938L38.0938 68.6875V71.6875L8.46875 58.6875V56.7812L38.0938 41.9688V44.9375ZM45.5938 80H42.3438L59.3438 34.3125H62.625L45.5938 80ZM83.6562 45.375C88.2396 45.375 91.7292 46.8854 94.125 49.9062C96.5417 52.9062 97.75 57.2396 97.75 62.9062C97.75 68.5521 96.4792 72.9167 93.9375 76C91.4167 79.0833 87.9688 80.625 83.5938 80.625C78.3854 80.625 74.5729 78.6667 72.1562 74.75H71.9375L72.0312 77.375C72.1146 78.7292 72.1562 80.4167 72.1562 82.4375V95.375H69.0625V46.0312H71.6875L72.2812 50.875H72.4688C74.8229 47.2083 78.5521 45.375 83.6562 45.375ZM72.1562 62.0938V63.0938C72.1562 68.4062 73.0417 72.1979 74.8125 74.4688C76.5833 76.7396 79.4896 77.875 83.5312 77.875C87.0104 77.875 89.6979 76.5833 91.5938 74C93.4896 71.4167 94.4375 67.8021 94.4375 63.1562C94.4375 53.1771 90.8438 48.1875 83.6562 48.1875C79.7188 48.1875 76.8125 49.2812 74.9375 51.4688C73.0833 53.6354 72.1562 57.1771 72.1562 62.0938ZM120.562 45.375C121.938 45.375 123.479 45.5208 125.188 45.8125L124.594 48.8125C123.198 48.4375 121.729 48.25 120.188 48.25C117.292 48.25 114.917 49.4896 113.062 51.9688C111.208 54.4271 110.281 57.5208 110.281 61.25V80H107.188V46.0312H109.812L110.125 52.1562H110.344C111.781 49.6146 113.271 47.8646 114.812 46.9062C116.396 45.8854 118.312 45.375 120.562 45.375ZM130.125 62.9688C130.125 57.4479 131.469 53.1354 134.156 50.0312C136.844 46.9271 140.521 45.375 145.188 45.375C149.875 45.375 153.542 46.9479 156.188 50.0938C158.854 53.2396 160.188 57.5625 160.188 63.0625C160.188 68.5417 158.844 72.8438 156.156 75.9688C153.469 79.0729 149.76 80.625 145.031 80.625C144.927 80.625 144.812 80.625 144.688 80.625C140.375 80.625 136.865 79.0312 134.156 75.8438C131.469 72.6562 130.125 68.5208 130.125 63.4375C130.125 63.2708 130.125 63.1146 130.125 62.9688ZM145.156 77.8125C148.906 77.8125 151.802 76.5104 153.844 73.9062C155.885 71.3021 156.906 67.6562 156.906 62.9688C156.906 58.2604 155.865 54.625 153.781 52.0625C151.719 49.4792 148.812 48.1875 145.062 48.1875C141.333 48.1875 138.448 49.4792 136.406 52.0625C134.385 54.625 133.375 58.25 133.375 62.9375C133.375 67.6042 134.396 71.2604 136.438 73.9062C138.5 76.5104 141.406 77.8125 145.156 77.8125ZM171.156 33.5938C171.802 33.5938 172.302 33.8542 172.656 34.375C173.031 34.8958 173.219 35.6354 173.219 36.5938C173.219 37.5312 173.031 38.2708 172.656 38.8125C172.302 39.3542 171.802 39.625 171.156 39.625C169.844 39.625 169.188 38.625 169.188 36.625C169.188 34.6042 169.844 33.5938 171.156 33.5938ZM172.719 46.0312V86.5938C172.719 89.4062 172.052 91.5729 170.719 93.0938C169.406 94.6146 167.531 95.375 165.094 95.375C163.406 95.375 162.01 95.1146 160.906 94.5938V91.9062C162.344 92.3229 163.677 92.5312 164.906 92.5312C168.052 92.5312 169.625 90.6979 169.625 87.0312V46.0312H172.719ZM197.844 80.625C192.927 80.625 189.073 79.1042 186.281 76.0625C183.531 73.0208 182.156 68.7812 182.156 63.3438C182.156 57.9062 183.479 53.5521 186.125 50.2812C188.792 47.0104 192.396 45.375 196.938 45.375C200.938 45.375 204.094 46.7812 206.406 49.5938C208.719 52.3854 209.875 56.1667 209.875 60.9375V63.4375H185.406C185.448 68.1042 186.531 71.6667 188.656 74.125C190.802 76.5833 193.865 77.8125 197.844 77.8125C199.823 77.8125 201.562 77.6667 203.062 77.375C204.562 77.0833 206.385 76.5104 208.531 75.6562V78.4688C206.635 79.3021 204.865 79.8646 203.219 80.1562C201.594 80.4688 199.802 80.625 197.844 80.625ZM206.594 60.6875C206.594 56.75 205.729 53.6771 204 51.4688C202.271 49.2396 199.833 48.125 196.688 48.125C193.562 48.125 191.01 49.2083 189.031 51.375C187.073 53.5417 185.927 56.6458 185.594 60.6875H206.594ZM232.812 80.625C227.958 80.625 224.156 79.0938 221.406 76.0312C218.656 72.9688 217.281 68.6667 217.281 63.125C217.281 57.5833 218.698 53.2396 221.531 50.0938C224.385 46.9479 228.302 45.375 233.281 45.375C236.24 45.375 239.052 45.8854 241.719 46.9062L240.875 49.6875C237.938 48.6875 235.385 48.1875 233.219 48.1875C229.073 48.1875 225.917 49.4688 223.75 52.0312C221.604 54.5938 220.531 58.2396 220.531 62.9688C220.531 67.6979 221.604 71.3542 223.75 73.9375C225.896 76.5208 228.896 77.8125 232.75 77.8125C235.792 77.8125 238.656 77.2604 241.344 76.1562V79.0312C239.198 80.0938 236.354 80.625 232.812 80.625ZM252.906 46.0312H262.875V48.7188H252.906V70.2188C252.906 72.8229 253.365 74.75 254.281 76C255.198 77.25 256.646 77.875 258.625 77.875C260.604 77.875 262.302 77.7083 263.719 77.375V79.875C262.219 80.375 260.49 80.625 258.531 80.625C255.531 80.625 253.312 79.8229 251.875 78.2188C250.458 76.6146 249.75 74.0938 249.75 70.6562V48.7188H244.719V46.9062L249.75 45.5L251.312 37.8125H252.906V46.0312ZM268 75.1875C271.333 76.8958 274.792 77.75 278.375 77.75C281.958 77.75 284.635 77.2083 286.406 76.125C288.177 75.0208 289.062 73.5625 289.062 71.75C289.062 69.9375 288.365 68.4583 286.969 67.3125C285.573 66.1458 283.25 64.9896 280 63.8438C276.75 62.6771 274.417 61.6354 273 60.7188C271.583 59.8021 270.531 58.7812 269.844 57.6562C269.177 56.5312 268.844 55.1875 268.844 53.625C268.844 51.1042 269.906 49.0938 272.031 47.5938C274.198 46.1146 277.146 45.375 280.875 45.375C284.625 45.375 288.146 46.0625 291.438 47.4375L290.281 50.25C286.865 48.875 283.771 48.1875 281 48.1875C278.229 48.1875 276.031 48.6458 274.406 49.5625C272.781 50.4792 271.969 51.7917 271.969 53.5C271.969 55.1875 272.594 56.5625 273.844 57.625C275.115 58.6875 277.427 59.8229 280.781 61.0312C284.135 62.2188 286.521 63.2708 287.938 64.1875C290.729 65.9375 292.125 68.3021 292.125 71.2812C292.125 74.2396 290.969 76.5417 288.656 78.1875C286.344 79.8125 282.979 80.625 278.562 80.625C274.167 80.625 270.646 79.9271 268 78.5312V75.1875ZM328.281 56.7812V58.6875L298.656 71.6875V68.6875L324.375 57.5938L298.656 44.9375V41.9688L328.281 56.7812Z" fill="#E1006C"/>
</svg>
