<svg width="334" height="68" viewBox="0 0 334 68" fill="none" xmlns="http://www.w3.org/2000/svg">
<path d="M45.0938 23.9375L19.375 36.5938L45.0938 47.6875V50.6875L15.4688 37.6875V35.7812L45.0938 20.9688V23.9375ZM52.5938 59H49.3438L66.3438 13.3125H69.625L52.5938 59ZM89.625 59.625C84.7708 59.625 80.9688 58.0938 78.2188 55.0312C75.4688 51.9688 74.0938 47.6667 74.0938 42.125C74.0938 36.5833 75.5104 32.2396 78.3438 29.0938C81.1979 25.9479 85.1146 24.375 90.0938 24.375C93.0521 24.375 95.8646 24.8854 98.5312 25.9062L97.6875 28.6875C94.75 27.6875 92.1979 27.1875 90.0312 27.1875C85.8854 27.1875 82.7292 28.4688 80.5625 31.0312C78.4167 33.5938 77.3438 37.2396 77.3438 41.9688C77.3438 46.6979 78.4167 50.3542 80.5625 52.9375C82.7083 55.5208 85.7083 56.8125 89.5625 56.8125C92.6042 56.8125 95.4688 56.2604 98.1562 55.1562V58.0312C96.0104 59.0938 93.1667 59.625 89.625 59.625ZM104.438 41.9688C104.438 36.4479 105.781 32.1354 108.469 29.0312C111.156 25.9271 114.833 24.375 119.5 24.375C124.188 24.375 127.854 25.9479 130.5 29.0938C133.167 32.2396 134.5 36.5625 134.5 42.0625C134.5 47.5417 133.156 51.8438 130.469 54.9688C127.781 58.0729 124.073 59.625 119.344 59.625C119.24 59.625 119.125 59.625 119 59.625C114.688 59.625 111.177 58.0312 108.469 54.8438C105.781 51.6562 104.438 47.5208 104.438 42.4375C104.438 42.2708 104.438 42.1146 104.438 41.9688ZM119.469 56.8125C123.219 56.8125 126.115 55.5104 128.156 52.9062C130.198 50.3021 131.219 46.6562 131.219 41.9688C131.219 37.2604 130.177 33.625 128.094 31.0625C126.031 28.4792 123.125 27.1875 119.375 27.1875C115.646 27.1875 112.76 28.4792 110.719 31.0625C108.698 33.625 107.688 37.25 107.688 41.9375C107.688 46.6042 108.708 50.2604 110.75 52.9062C112.812 55.5104 115.719 56.8125 119.469 56.8125ZM159.125 24.375C166.833 24.375 170.688 28.5104 170.688 36.7812V59H167.625V36.9688C167.625 33.5729 166.906 31.0938 165.469 29.5312C164.052 27.9688 161.823 27.1875 158.781 27.1875C154.76 27.1875 151.792 28.2083 149.875 30.25C147.979 32.2917 147.031 35.625 147.031 40.25V59H143.938V25.0312H146.562L147.156 29.6875H147.344C149.573 26.1458 153.5 24.375 159.125 24.375ZM184.969 25.0312H194.938V27.7188H184.969V49.2188C184.969 51.8229 185.427 53.75 186.344 55C187.26 56.25 188.708 56.875 190.688 56.875C192.667 56.875 194.365 56.7083 195.781 56.375V58.875C194.281 59.375 192.552 59.625 190.594 59.625C187.594 59.625 185.375 58.8229 183.938 57.2188C182.521 55.6146 181.812 53.0938 181.812 49.6562V27.7188H176.781V25.9062L181.812 24.5L183.375 16.8125H184.969V25.0312ZM203.844 27.0625C207.573 25.3125 211.281 24.4375 214.969 24.4375C218.677 24.4375 221.448 25.4167 223.281 27.375C225.115 29.3125 226.031 32.3229 226.031 36.4062V59H223.75L222.969 53.625H222.719C220.99 55.8333 219.229 57.3854 217.438 58.2812C215.667 59.1771 213.542 59.625 211.062 59.625C207.729 59.625 205.125 58.7812 203.25 57.0938C201.396 55.3854 200.469 52.9479 200.469 49.7812C200.469 46.5938 201.854 44.0833 204.625 42.25C207.396 40.4167 211.396 39.4479 216.625 39.3438L223.094 39.1562V36.9062C223.094 33.6146 222.427 31.1667 221.094 29.5625C219.76 27.9375 217.604 27.125 214.625 27.125C211.646 27.125 208.438 28 205 29.75L203.844 27.0625ZM203.781 50.0938C203.781 52.2188 204.427 53.875 205.719 55.0625C207.031 56.2292 208.875 56.8125 211.25 56.8125C214.875 56.8125 217.729 55.7708 219.812 53.6875C221.917 51.6042 222.969 48.7292 222.969 45.0625V41.7188L217.031 41.9688C212.26 42.1979 208.854 42.9479 206.812 44.2188C204.792 45.4688 203.781 47.4271 203.781 50.0938ZM250.625 59.625C245.771 59.625 241.969 58.0938 239.219 55.0312C236.469 51.9688 235.094 47.6667 235.094 42.125C235.094 36.5833 236.51 32.2396 239.344 29.0938C242.198 25.9479 246.115 24.375 251.094 24.375C254.052 24.375 256.865 24.8854 259.531 25.9062L258.688 28.6875C255.75 27.6875 253.198 27.1875 251.031 27.1875C246.885 27.1875 243.729 28.4688 241.562 31.0312C239.417 33.5938 238.344 37.2396 238.344 41.9688C238.344 46.6979 239.417 50.3542 241.562 52.9375C243.708 55.5208 246.708 56.8125 250.562 56.8125C253.604 56.8125 256.469 56.2604 259.156 55.1562V58.0312C257.01 59.0938 254.167 59.625 250.625 59.625ZM270.719 25.0312H280.688V27.7188H270.719V49.2188C270.719 51.8229 271.177 53.75 272.094 55C273.01 56.25 274.458 56.875 276.438 56.875C278.417 56.875 280.115 56.7083 281.531 56.375V58.875C280.031 59.375 278.302 59.625 276.344 59.625C273.344 59.625 271.125 58.8229 269.688 57.2188C268.271 55.6146 267.562 53.0938 267.562 49.6562V27.7188H262.531V25.9062L267.562 24.5L269.125 16.8125H270.719V25.0312ZM316.281 35.7812V37.6875L286.656 50.6875V47.6875L312.375 36.5938L286.656 23.9375V20.9688L316.281 35.7812Z" fill="#E1006C"/>
</svg>
