<svg width="286" height="92" viewBox="0 0 286 92" fill="none" xmlns="http://www.w3.org/2000/svg">
<path d="M75.607 51.446L24.89 49.843C17.856 49.621 9.94589 49.632 4.92869 53.267C-0.765607 57.393 0.0965922 64.703 4.82439 69.444C9.55219 74.185 17.101 76.894 24.511 79.096C63.875 90.796 107.439 93.171 149.74 90.524C192.04 87.876 233.47 80.392 274.695 72.933C278.605 72.226 283.037 71.208 284.631 68.487C286.174 65.855 284.155 62.681 281.02 60.979C277.885 59.278 273.911 58.705 270.077 58.198C200.63 49.072 130.431 47.0699 60.577 52.2219" fill="#E1006C"/>
<path d="M166.73 12.44V0.439999C158.022 0.562999 126.86 0.350999 118.73 0.439999C118.125 42.381 114.417 34.165 148.778 34.329C150.357 34.335 151.87 34.966 152.985 36.084C154.101 37.202 154.728 38.716 154.73 40.295V40.475C154.73 42.057 154.102 43.574 152.983 44.693C151.864 45.812 150.347 46.44 148.765 46.44H118.73V58.44H166.73C166.797 58.4 166.681 46.853 166.73 46.44C168.76 11.675 164.744 24.179 135.564 22.784C134.259 22.718 133.029 22.151 132.129 21.203C131.229 20.255 130.728 18.997 130.73 17.69V17.54C130.73 16.187 131.267 14.89 132.224 13.934C133.18 12.977 134.477 12.44 135.83 12.44H166.73Z" fill="#F1F1F1"/>
<path d="M225.73 12.44V0.439999C217.022 0.562999 185.86 0.350999 177.73 0.439999C177.12 42.746 173.352 34.019 208.682 34.335C210.026 34.349 211.31 34.892 212.255 35.847C213.2 36.802 213.73 38.091 213.73 39.434C213.73 40.065 213.73 40.71 213.73 41.342C213.73 42.011 213.598 42.674 213.342 43.293C213.085 43.912 212.71 44.474 212.236 44.947C211.763 45.421 211.2 45.796 210.582 46.052C209.963 46.308 209.3 46.44 208.63 46.44H177.73V58.44H225.73C225.797 58.4 225.681 46.853 225.73 46.44C227.76 11.675 223.744 24.179 194.564 22.784C193.259 22.718 192.029 22.151 191.129 21.203C190.229 20.255 189.728 18.997 189.73 17.69V17.54C189.73 16.187 190.267 14.89 191.224 13.934C192.18 12.977 193.477 12.44 194.83 12.44H225.73Z" fill="#F1F1F1"/>
<path d="M104.73 12.4399V0.439941H56.73C56.696 11.1429 56.754 39.4719 56.73 50.4399C47.321 66.3689 100.772 55.3409 104.733 58.4439C104.73 58.4399 104.73 46.4399 104.73 46.4399C68.209 46.2489 67.291 53.0859 68.466 20.0099C68.537 17.9789 69.393 16.0549 70.854 14.6429C72.315 13.2309 74.268 12.4409 76.3 12.4389C86.858 12.4399 104.73 12.4399 104.73 12.4399Z" fill="#F1F1F1"/>
</svg>
