<svg width="74" height="96" viewBox="0 0 74 96" fill="none" xmlns="http://www.w3.org/2000/svg">
<path d="M30.6364 54.0947C30.4937 54.4697 30.3062 54.7936 30.0739 55.0641C29.8438 55.339 29.5626 55.5521 29.2302 55.7055C28.8978 55.8589 28.4909 55.9334 28.0157 55.9334C27.3488 55.9334 26.797 55.7886 26.3538 55.5009C25.9107 55.209 25.557 54.8276 25.2928 54.3483C25.0286 53.8731 24.8368 53.3319 24.7175 52.7375C24.5961 52.143 24.5385 51.5358 24.5385 50.9222C24.5385 50.3064 24.5961 49.7035 24.7175 49.1048C24.8368 48.5061 25.0286 47.9691 25.2928 47.494C25.557 47.0146 25.9107 46.6332 26.3538 46.3413C26.797 46.0494 27.351 45.9088 28.0157 45.9088C28.5931 45.9088 29.0683 46.0175 29.4347 46.2369C29.8012 46.4606 30.0952 46.7163 30.3168 47.0061C30.5384 47.298 30.6918 47.5878 30.777 47.8882C30.8623 48.1843 30.9219 48.4208 30.956 48.5913H36.4275C36.1888 46.2902 35.3835 44.5132 34.0092 43.2604C32.6371 42.0076 30.6897 41.3706 28.1691 41.3535C26.7544 41.3535 25.4781 41.5815 24.3468 42.0438C23.2133 42.5019 22.2417 43.1518 21.4321 43.987C20.6224 44.8222 20.0003 45.8257 19.5656 47.004C19.131 48.1779 18.9115 49.4861 18.9115 50.9158C18.9115 52.2602 19.1182 53.5216 19.5252 54.687C19.9342 55.8567 20.5372 56.8624 21.3298 57.7168C22.1224 58.5712 23.0876 59.2445 24.2296 59.7388C25.3716 60.2288 26.6841 60.4802 28.1691 60.4802C29.4987 60.4802 30.6833 60.2565 31.723 59.8155C32.7607 59.3702 33.6342 58.7885 34.3416 58.0641C35.049 57.3397 35.5859 56.5236 35.9523 55.6224C36.3188 54.7232 36.5042 53.8071 36.5042 52.8888H30.9794C30.8963 53.3149 30.7834 53.7218 30.6364 54.0947Z" fill="#E1006C"/>
<path d="M45.6829 52.8653H45.6318L42.6404 41.7946H36.9644L42.4103 60.0498H48.6999L54.4036 41.7946H48.6232L45.6829 52.8653Z" fill="#E1006C"/>
<path d="M60.1947 0H0V96H73.9309V13.3186L60.1947 0ZM67.539 89.606H6.3919V6.3919H56.9007V16.5337H67.5368L67.539 89.606Z" fill="#E1006C"/>
</svg>
