<svg width="286" height="88" viewBox="0 0 286 88" fill="none" xmlns="http://www.w3.org/2000/svg">
<path d="M75.607 54.112L24.89 52.776C17.856 52.591 9.946 52.6 4.929 55.63C-0.765996 59.07 0.0970087 65.163 4.82401 69.115C9.55201 73.067 17.101 75.325 24.511 77.161C63.875 86.913 107.439 88.893 149.74 86.687C192.04 84.48 233.47 78.2409 274.695 72.0239C278.605 71.4339 283.037 70.5849 284.631 68.3169C286.174 66.1229 284.155 63.477 281.02 62.059C277.885 60.641 273.911 60.163 270.077 59.741C200.512 52.131 130.425 50.464 60.577 54.759" fill="#E1006C"/>
<path d="M66.73 1.43998C65.913 19.966 72.722 25.798 49.229 23.438C47.642 12.386 55.691 -2.95202 37.23 0.941978C40.928 8.95998 26.927 69.786 49.226 58.937C50.478 40.662 42.224 32.646 66.73 35.442C68.696 46.739 59.523 63.363 78.729 59.438C75.031 51.417 89.032 -9.40402 66.73 1.43998Z" fill="#F1F1F1"/>
<path d="M189.73 1.43996C191.377 2.45696 174.639 20.164 174.278 21.615C173.776 20.376 157.801 3.05196 159.73 1.44096C137.5 -9.54404 151.355 51.635 147.726 59.443C147.73 59.44 159.73 59.44 159.73 59.44V21.442C176.597 44.192 173.465 40.363 189.73 20.325V59.44C211.959 70.429 198.106 9.24096 201.734 1.43696C201.73 1.43996 189.73 1.43996 189.73 1.43996Z" fill="#F1F1F1"/>
<path d="M136.73 1.43994H88.73C85.909 18.2619 95.235 12.6199 106.731 13.4399L106.73 59.4399H118.73V13.4399C130.173 12.6619 139.586 18.1879 136.73 1.43994Z" fill="#F1F1F1"/>
<path d="M223.73 47.4399C220.958 32.2319 220.958 16.6479 223.73 1.43994H211.73C211.799 9.04294 211.708 39.722 211.716 53.752C211.715 55.266 212.316 56.7179 213.386 57.7899C214.456 58.8609 215.907 59.4629 217.421 59.4639C229.511 59.4799 252.591 59.3909 259.73 59.4399V47.4399H223.73Z" fill="#F1F1F1"/>
</svg>
