<svg width="152" height="83" viewBox="0 0 152 83" fill="none" xmlns="http://www.w3.org/2000/svg">
<path d="M39.923 49.146L12.797 47.812C9.03501 47.627 4.80401 47.636 2.12101 50.661C-0.924986 54.094 -0.462986 60.175 2.06501 64.12C4.59401 68.065 8.63101 70.319 12.594 72.151C33.648 81.886 56.948 83.862 79.572 81.66C102.196 79.457 124.354 73.23 146.403 67.024C148.494 66.435 150.864 65.588 151.717 63.324C152.542 61.134 151.462 58.493 149.786 57.077C148.109 55.662 145.983 55.185 143.933 54.764C106.727 47.168 69.241 45.504 31.884 49.791" fill="#E1006C"/>
<path d="M53.292 45.979C53.292 30.309 50.049 15.809 53.292 0H63.283C63.244 7.599 63.295 38.265 63.291 52.288C63.291 53.801 62.954 55.253 62.352 56.324C61.75 57.395 60.934 57.997 60.083 57.998C53.284 58.014 37.014 56.275 33 56.324V45.979H53.292Z" fill="#F1F1F1"/>
<path d="M121.412 12.4961V0.496069C112.703 0.620069 81.541 0.407069 73.412 0.496069C72.801 42.8021 69.034 34.0751 104.364 34.3911C105.707 34.4051 106.991 34.9481 107.936 35.9031C108.882 36.8581 109.412 38.1471 109.412 39.4911C109.412 40.1211 109.412 40.7661 109.412 41.3981C109.412 42.0671 109.28 42.7311 109.023 43.3491C108.767 43.9681 108.391 44.5301 107.918 45.0031C107.444 45.4771 106.882 45.8521 106.263 46.1081C105.645 46.3651 104.982 46.4961 104.312 46.4961H73.412V58.4961H121.412C121.479 58.4561 121.363 46.9091 121.412 46.4961C123.441 11.7311 119.425 24.2351 90.246 22.8411C88.94 22.7741 87.71 22.2081 86.811 21.2591C85.911 20.3111 85.41 19.0531 85.411 17.7461V17.5961C85.411 16.2431 85.949 14.9461 86.905 13.9901C87.862 13.0341 89.159 12.4961 90.511 12.4961H121.412Z" fill="#F1F1F1"/>
</svg>
