<svg width="68" height="68" viewBox="0 0 68 68" fill="none" xmlns="http://www.w3.org/2000/svg">
<path fill-rule="evenodd" clip-rule="evenodd" d="M36.8028 30.5402C36.8148 30.5402 36.8246 30.5304 36.8246 30.5184C36.8246 30.4964 36.7932 30.4866 36.7807 30.5048C36.78 30.5058 36.7793 30.5068 36.7787 30.5077C36.7689 30.522 36.7795 30.5402 36.7967 30.5402H36.8028Z" fill="#E1006C"/>
<path fill-rule="evenodd" clip-rule="evenodd" d="M19 0C8.50659 0 0 8.50659 0 19V49C0 59.4934 8.50659 68 19 68H49C59.4934 68 68 59.4934 68 49V19C68 8.50659 59.4934 0 49 0H19ZM21.1505 51.4482C21.1505 54.2341 18.8921 56.4926 16.1061 56.4926C13.3202 56.4926 11.0617 54.2342 11.0617 51.4482V31.1842C11.0617 28.3983 13.3202 26.1398 16.1061 26.1398C18.8921 26.1398 21.1505 28.3983 21.1505 31.1842V51.4482ZM16.1061 21.997H16.0395C12.6552 21.997 10.4615 19.6655 10.4615 16.7512C10.4615 13.7729 12.7193 11.5074 16.1722 11.5074C19.6258 11.5074 21.7482 13.7729 21.8143 16.7512C21.8143 19.6655 19.6258 21.997 16.1061 21.997ZM57.5385 51.4469C57.5385 54.2336 55.2794 56.4926 52.4927 56.4926C49.706 56.4926 47.447 54.2336 47.447 51.4469V40.2538C47.447 36.1751 45.9889 33.391 42.3365 33.391C39.5472 33.391 37.8896 35.2655 37.1594 37.0814C36.894 37.73 36.8246 38.6316 36.8246 39.5412V51.4584C36.8246 54.2388 34.5707 56.4928 31.7903 56.4928C29.0003 56.4928 26.7421 54.232 26.753 51.442C26.7748 45.8852 26.8029 36.9893 26.7863 31.2986C26.7781 28.4857 29.0848 26.1399 31.8977 26.1399H35.8413C36.3844 26.1399 36.8246 26.5802 36.8246 27.1233C36.8246 28.1022 38.2077 28.5494 38.9361 27.8954C40.4341 26.5504 42.612 25.4274 45.9196 25.4274C52.5607 25.4274 57.5385 29.7644 57.5385 39.0868V51.4469Z" fill="#E1006C"/>
</svg>
