<svg width="340" height="110" viewBox="0 0 340 110" fill="none" xmlns="http://www.w3.org/2000/svg">
<path d="M51.0938 44.9375L25.375 57.5938L51.0938 68.6875V71.6875L21.4688 58.6875V56.7812L51.0938 41.9688V44.9375ZM74.8438 45.375C79.4271 45.375 82.9167 46.8854 85.3125 49.9062C87.7292 52.9062 88.9375 57.2396 88.9375 62.9062C88.9375 68.5521 87.6667 72.9167 85.125 76C82.6042 79.0833 79.1562 80.625 74.7812 80.625C69.5729 80.625 65.7604 78.6667 63.3438 74.75H63.125L63.2188 77.375C63.3021 78.7292 63.3438 80.4167 63.3438 82.4375V95.375H60.25V46.0312H62.875L63.4688 50.875H63.6562C66.0104 47.2083 69.7396 45.375 74.8438 45.375ZM63.3438 62.0938V63.0938C63.3438 68.4062 64.2292 72.1979 66 74.4688C67.7708 76.7396 70.6771 77.875 74.7188 77.875C78.1979 77.875 80.8854 76.5833 82.7812 74C84.6771 71.4167 85.625 67.8021 85.625 63.1562C85.625 53.1771 82.0312 48.1875 74.8438 48.1875C70.9062 48.1875 68 49.2812 66.125 51.4688C64.2708 53.6354 63.3438 57.1771 63.3438 62.0938ZM111.75 45.375C113.125 45.375 114.667 45.5208 116.375 45.8125L115.781 48.8125C114.385 48.4375 112.917 48.25 111.375 48.25C108.479 48.25 106.104 49.4896 104.25 51.9688C102.396 54.4271 101.469 57.5208 101.469 61.25V80H98.375V46.0312H101L101.312 52.1562H101.531C102.969 49.6146 104.458 47.8646 106 46.9062C107.583 45.8854 109.5 45.375 111.75 45.375ZM121.312 62.9688C121.312 57.4479 122.656 53.1354 125.344 50.0312C128.031 46.9271 131.708 45.375 136.375 45.375C141.062 45.375 144.729 46.9479 147.375 50.0938C150.042 53.2396 151.375 57.5625 151.375 63.0625C151.375 68.5417 150.031 72.8438 147.344 75.9688C144.656 79.0729 140.948 80.625 136.219 80.625C136.115 80.625 136 80.625 135.875 80.625C131.562 80.625 128.052 79.0312 125.344 75.8438C122.656 72.6562 121.312 68.5208 121.312 63.4375C121.312 63.2708 121.312 63.1146 121.312 62.9688ZM136.344 77.8125C140.094 77.8125 142.99 76.5104 145.031 73.9062C147.073 71.3021 148.094 67.6562 148.094 62.9688C148.094 58.2604 147.052 54.625 144.969 52.0625C142.906 49.4792 140 48.1875 136.25 48.1875C132.521 48.1875 129.635 49.4792 127.594 52.0625C125.573 54.625 124.562 58.25 124.562 62.9375C124.562 67.6042 125.583 71.2604 127.625 73.9062C129.688 76.5104 132.594 77.8125 136.344 77.8125ZM162.344 33.5938C162.99 33.5938 163.49 33.8542 163.844 34.375C164.219 34.8958 164.406 35.6354 164.406 36.5938C164.406 37.5312 164.219 38.2708 163.844 38.8125C163.49 39.3542 162.99 39.625 162.344 39.625C161.031 39.625 160.375 38.625 160.375 36.625C160.375 34.6042 161.031 33.5938 162.344 33.5938ZM163.906 46.0312V86.5938C163.906 89.4062 163.24 91.5729 161.906 93.0938C160.594 94.6146 158.719 95.375 156.281 95.375C154.594 95.375 153.198 95.1146 152.094 94.5938V91.9062C153.531 92.3229 154.865 92.5312 156.094 92.5312C159.24 92.5312 160.812 90.6979 160.812 87.0312V46.0312H163.906ZM189.031 80.625C184.115 80.625 180.26 79.1042 177.469 76.0625C174.719 73.0208 173.344 68.7812 173.344 63.3438C173.344 57.9062 174.667 53.5521 177.312 50.2812C179.979 47.0104 183.583 45.375 188.125 45.375C192.125 45.375 195.281 46.7812 197.594 49.5938C199.906 52.3854 201.062 56.1667 201.062 60.9375V63.4375H176.594C176.635 68.1042 177.719 71.6667 179.844 74.125C181.99 76.5833 185.052 77.8125 189.031 77.8125C191.01 77.8125 192.75 77.6667 194.25 77.375C195.75 77.0833 197.573 76.5104 199.719 75.6562V78.4688C197.823 79.3021 196.052 79.8646 194.406 80.1562C192.781 80.4688 190.99 80.625 189.031 80.625ZM197.781 60.6875C197.781 56.75 196.917 53.6771 195.188 51.4688C193.458 49.2396 191.021 48.125 187.875 48.125C184.75 48.125 182.198 49.2083 180.219 51.375C178.26 53.5417 177.115 56.6458 176.781 60.6875H197.781ZM224 80.625C219.146 80.625 215.344 79.0938 212.594 76.0312C209.844 72.9688 208.469 68.6667 208.469 63.125C208.469 57.5833 209.885 53.2396 212.719 50.0938C215.573 46.9479 219.49 45.375 224.469 45.375C227.427 45.375 230.24 45.8854 232.906 46.9062L232.062 49.6875C229.125 48.6875 226.573 48.1875 224.406 48.1875C220.26 48.1875 217.104 49.4688 214.938 52.0312C212.792 54.5938 211.719 58.2396 211.719 62.9688C211.719 67.6979 212.792 71.3542 214.938 73.9375C217.083 76.5208 220.083 77.8125 223.938 77.8125C226.979 77.8125 229.844 77.2604 232.531 76.1562V79.0312C230.385 80.0938 227.542 80.625 224 80.625ZM244.094 46.0312H254.062V48.7188H244.094V70.2188C244.094 72.8229 244.552 74.75 245.469 76C246.385 77.25 247.833 77.875 249.812 77.875C251.792 77.875 253.49 77.7083 254.906 77.375V79.875C253.406 80.375 251.677 80.625 249.719 80.625C246.719 80.625 244.5 79.8229 243.062 78.2188C241.646 76.6146 240.938 74.0938 240.938 70.6562V48.7188H235.906V46.9062L240.938 45.5L242.5 37.8125H244.094V46.0312ZM259.188 75.1875C262.521 76.8958 265.979 77.75 269.562 77.75C273.146 77.75 275.823 77.2083 277.594 76.125C279.365 75.0208 280.25 73.5625 280.25 71.75C280.25 69.9375 279.552 68.4583 278.156 67.3125C276.76 66.1458 274.438 64.9896 271.188 63.8438C267.938 62.6771 265.604 61.6354 264.188 60.7188C262.771 59.8021 261.719 58.7812 261.031 57.6562C260.365 56.5312 260.031 55.1875 260.031 53.625C260.031 51.1042 261.094 49.0938 263.219 47.5938C265.385 46.1146 268.333 45.375 272.062 45.375C275.812 45.375 279.333 46.0625 282.625 47.4375L281.469 50.25C278.052 48.875 274.958 48.1875 272.188 48.1875C269.417 48.1875 267.219 48.6458 265.594 49.5625C263.969 50.4792 263.156 51.7917 263.156 53.5C263.156 55.1875 263.781 56.5625 265.031 57.625C266.302 58.6875 268.615 59.8229 271.969 61.0312C275.323 62.2188 277.708 63.2708 279.125 64.1875C281.917 65.9375 283.312 68.3021 283.312 71.2812C283.312 74.2396 282.156 76.5417 279.844 78.1875C277.531 79.8125 274.167 80.625 269.75 80.625C265.354 80.625 261.833 79.9271 259.188 78.5312V75.1875ZM319.469 56.7812V58.6875L289.844 71.6875V68.6875L315.562 57.5938L289.844 44.9375V41.9688L319.469 56.7812Z" fill="#E1006C"/>
</svg>
