<svg width="334" height="68" viewBox="0 0 334 68" fill="none" xmlns="http://www.w3.org/2000/svg">
<path d="M57.0938 23.9375L31.375 36.5938L57.0938 47.6875V50.6875L27.4688 37.6875V35.7812L57.0938 20.9688V23.9375ZM79.8125 59.625C74.9583 59.625 71.1562 58.0938 68.4062 55.0312C65.6562 51.9688 64.2812 47.6667 64.2812 42.125C64.2812 36.5833 65.6979 32.2396 68.5312 29.0938C71.3854 25.9479 75.3021 24.375 80.2812 24.375C83.2396 24.375 86.0521 24.8854 88.7188 25.9062L87.875 28.6875C84.9375 27.6875 82.3854 27.1875 80.2188 27.1875C76.0729 27.1875 72.9167 28.4688 70.75 31.0312C68.6042 33.5938 67.5312 37.2396 67.5312 41.9688C67.5312 46.6979 68.6042 50.3542 70.75 52.9375C72.8958 55.5208 75.8958 56.8125 79.75 56.8125C82.7917 56.8125 85.6562 56.2604 88.3438 55.1562V58.0312C86.1979 59.0938 83.3542 59.625 79.8125 59.625ZM94.625 41.9688C94.625 36.4479 95.9688 32.1354 98.6562 29.0312C101.344 25.9271 105.021 24.375 109.688 24.375C114.375 24.375 118.042 25.9479 120.688 29.0938C123.354 32.2396 124.688 36.5625 124.688 42.0625C124.688 47.5417 123.344 51.8438 120.656 54.9688C117.969 58.0729 114.26 59.625 109.531 59.625C109.427 59.625 109.312 59.625 109.188 59.625C104.875 59.625 101.365 58.0312 98.6562 54.8438C95.9688 51.6562 94.625 47.5208 94.625 42.4375C94.625 42.2708 94.625 42.1146 94.625 41.9688ZM109.656 56.8125C113.406 56.8125 116.302 55.5104 118.344 52.9062C120.385 50.3021 121.406 46.6562 121.406 41.9688C121.406 37.2604 120.365 33.625 118.281 31.0625C116.219 28.4792 113.312 27.1875 109.562 27.1875C105.833 27.1875 102.948 28.4792 100.906 31.0625C98.8854 33.625 97.875 37.25 97.875 41.9375C97.875 46.6042 98.8958 50.2604 100.938 52.9062C103 55.5104 105.906 56.8125 109.656 56.8125ZM149.312 24.375C157.021 24.375 160.875 28.5104 160.875 36.7812V59H157.812V36.9688C157.812 33.5729 157.094 31.0938 155.656 29.5312C154.24 27.9688 152.01 27.1875 148.969 27.1875C144.948 27.1875 141.979 28.2083 140.062 30.25C138.167 32.2917 137.219 35.625 137.219 40.25V59H134.125V25.0312H136.75L137.344 29.6875H137.531C139.76 26.1458 143.688 24.375 149.312 24.375ZM175.156 25.0312H185.125V27.7188H175.156V49.2188C175.156 51.8229 175.615 53.75 176.531 55C177.448 56.25 178.896 56.875 180.875 56.875C182.854 56.875 184.552 56.7083 185.969 56.375V58.875C184.469 59.375 182.74 59.625 180.781 59.625C177.781 59.625 175.562 58.8229 174.125 57.2188C172.708 55.6146 172 53.0938 172 49.6562V27.7188H166.969V25.9062L172 24.5L173.562 16.8125H175.156V25.0312ZM194.031 27.0625C197.76 25.3125 201.469 24.4375 205.156 24.4375C208.865 24.4375 211.635 25.4167 213.469 27.375C215.302 29.3125 216.219 32.3229 216.219 36.4062V59H213.938L213.156 53.625H212.906C211.177 55.8333 209.417 57.3854 207.625 58.2812C205.854 59.1771 203.729 59.625 201.25 59.625C197.917 59.625 195.312 58.7812 193.438 57.0938C191.583 55.3854 190.656 52.9479 190.656 49.7812C190.656 46.5938 192.042 44.0833 194.812 42.25C197.583 40.4167 201.583 39.4479 206.812 39.3438L213.281 39.1562V36.9062C213.281 33.6146 212.615 31.1667 211.281 29.5625C209.948 27.9375 207.792 27.125 204.812 27.125C201.833 27.125 198.625 28 195.188 29.75L194.031 27.0625ZM193.969 50.0938C193.969 52.2188 194.615 53.875 195.906 55.0625C197.219 56.2292 199.062 56.8125 201.438 56.8125C205.062 56.8125 207.917 55.7708 210 53.6875C212.104 51.6042 213.156 48.7292 213.156 45.0625V41.7188L207.219 41.9688C202.448 42.1979 199.042 42.9479 197 44.2188C194.979 45.4688 193.969 47.4271 193.969 50.0938ZM240.812 59.625C235.958 59.625 232.156 58.0938 229.406 55.0312C226.656 51.9688 225.281 47.6667 225.281 42.125C225.281 36.5833 226.698 32.2396 229.531 29.0938C232.385 25.9479 236.302 24.375 241.281 24.375C244.24 24.375 247.052 24.8854 249.719 25.9062L248.875 28.6875C245.938 27.6875 243.385 27.1875 241.219 27.1875C237.073 27.1875 233.917 28.4688 231.75 31.0312C229.604 33.5938 228.531 37.2396 228.531 41.9688C228.531 46.6979 229.604 50.3542 231.75 52.9375C233.896 55.5208 236.896 56.8125 240.75 56.8125C243.792 56.8125 246.656 56.2604 249.344 55.1562V58.0312C247.198 59.0938 244.354 59.625 240.812 59.625ZM260.906 25.0312H270.875V27.7188H260.906V49.2188C260.906 51.8229 261.365 53.75 262.281 55C263.198 56.25 264.646 56.875 266.625 56.875C268.604 56.875 270.302 56.7083 271.719 56.375V58.875C270.219 59.375 268.49 59.625 266.531 59.625C263.531 59.625 261.312 58.8229 259.875 57.2188C258.458 55.6146 257.75 53.0938 257.75 49.6562V27.7188H252.719V25.9062L257.75 24.5L259.312 16.8125H260.906V25.0312ZM306.469 35.7812V37.6875L276.844 50.6875V47.6875L302.562 36.5938L276.844 23.9375V20.9688L306.469 35.7812Z" fill="#E1006C"/>
</svg>
