<svg width="2269" height="250" viewBox="0 0 2269 250" fill="none" xmlns="http://www.w3.org/2000/svg">
<path d="M0 89L325.653 31L648.782 46L974.435 90L1297.56 30L1623.22 81L1946.35 72L2272 0V250H1946.35H1623.22H1297.56H974.435H648.782H325.653H0V89Z" fill="#E1006C"/>
<path d="M0 44L325.653 85L648.782 58L974.435 96L1297.56 129L1623.22 112L1946.35 84L2272 58V250H1946.35H1623.22H1297.56H974.435H648.782H325.653H0V44Z" fill="#A71B52"/>
<path d="M0 153L325.653 130L648.782 92L974.435 135L1297.56 104L1623.22 140L1946.35 152L2272 153V250H1946.35H1623.22H1297.56H974.435H648.782H325.653H0V153Z" fill="#701E3A"/>
<path d="M0 190L325.653 172L648.782 174L974.435 153L1297.56 147L1623.22 175H1946.35L2272 176V250H1946.35H1623.22H1297.56H974.435H648.782H325.653H0V190Z" fill="#3D1923"/>
<path d="M0 185L325.653 214L648.782 182L974.435 199L1297.56 204L1623.22 214L1946.35 198L2272 189V250H1946.35H1623.22H1297.56H974.435H648.782H325.653H0V185Z" fill="#230011"/>
</svg>
