<svg width="2272" height="101" viewBox="0 0 2272 101" fill="none" xmlns="http://www.w3.org/2000/svg">
<path d="M0 35L325.653 12L648.782 18L974.435 36L1297.56 12L1623.22 32L1946.35 29L2272 0V101H1946.35H1623.22H1297.56H974.435H648.782H325.653H0V35Z" fill="#230011"/>
<path d="M0 17L325.653 34L648.782 23L974.435 38L1297.56 51L1623.22 44L1946.35 33L2272 23V101H1946.35H1623.22H1297.56H974.435H648.782H325.653H0V17Z" fill="#4B0A29"/>
<path d="M0 61L325.653 52L648.782 37L974.435 54L1297.56 41L1623.22 56L1946.35 61H2272V101H1946.35H1623.22H1297.56H974.435H648.782H325.653H0V61Z" fill="#790D40"/>
<path d="M0 76L325.653 69H648.782L974.435 61L1297.56 58L1623.22 70H1946.35H2272V101H1946.35H1623.22H1297.56H974.435H648.782H325.653H0V76Z" fill="#AB0A57"/>
<path d="M0 74L325.653 85L648.782 73L974.435 79L1297.56 81L1623.22 86L1946.35 79L2272 75V101H1946.35H1623.22H1297.56H974.435H648.782H325.653H0V74Z" fill="#E1006C"/>
</svg>
