<svg width="969" height="467" viewBox="0 0 969 467" fill="none" xmlns="http://www.w3.org/2000/svg">
<g filter="url(#filter0_d_164_2)">
<path d="M174.562 235H171.344V212.531H144.656V235H141.469V189.312H144.656V209.594H171.344V189.312H174.562V235ZM200.469 235.625C195.552 235.625 191.698 234.104 188.906 231.062C186.156 228.021 184.781 223.781 184.781 218.344C184.781 212.906 186.104 208.552 188.75 205.281C191.417 202.01 195.021 200.375 199.562 200.375C203.562 200.375 206.719 201.781 209.031 204.594C211.344 207.385 212.5 211.167 212.5 215.938V218.438H188.031C188.073 223.104 189.156 226.667 191.281 229.125C193.427 231.583 196.49 232.812 200.469 232.812C202.448 232.812 204.188 232.667 205.688 232.375C207.188 232.083 209.01 231.51 211.156 230.656V233.469C209.26 234.302 207.49 234.865 205.844 235.156C204.219 235.469 202.427 235.625 200.469 235.625ZM209.219 215.688C209.219 211.75 208.354 208.677 206.625 206.469C204.896 204.24 202.458 203.125 199.312 203.125C196.188 203.125 193.635 204.208 191.656 206.375C189.698 208.542 188.552 211.646 188.219 215.688H209.219ZM220.281 250.375C219.094 250.375 217.771 250.156 216.312 249.719V247.031C217.5 247.365 218.802 247.531 220.219 247.531C222.302 247.531 223.969 246.5 225.219 244.438C225.906 243.354 226.667 241.688 227.5 239.438L229.188 235L216.188 201.031H219.375L226.562 220.094C228.688 225.781 230.073 229.74 230.719 231.969H230.906C231.656 229.635 233.083 225.615 235.188 219.906L242.375 201.031H245.562L230.344 240.5C229.135 243.688 228.104 245.854 227.25 247C225.583 249.25 223.26 250.375 220.281 250.375ZM254.188 223.219H252.281L251.375 189.312H255.094L254.188 223.219ZM253.188 229.5C254.896 229.5 255.75 230.521 255.75 232.562C255.75 234.604 254.896 235.625 253.188 235.625C251.521 235.625 250.688 234.604 250.688 232.562C250.688 230.521 251.521 229.5 253.188 229.5ZM287.219 235H284.031V189.312H287.219V235ZM316.719 203.062C320.448 201.312 324.156 200.438 327.844 200.438C331.552 200.438 334.323 201.417 336.156 203.375C337.99 205.312 338.906 208.323 338.906 212.406V235H336.625L335.844 229.625H335.594C333.865 231.833 332.104 233.385 330.312 234.281C328.542 235.177 326.417 235.625 323.938 235.625C320.604 235.625 318 234.781 316.125 233.094C314.271 231.385 313.344 228.948 313.344 225.781C313.344 222.594 314.729 220.083 317.5 218.25C320.271 216.417 324.271 215.448 329.5 215.344L335.969 215.156V212.906C335.969 209.615 335.302 207.167 333.969 205.562C332.635 203.938 330.479 203.125 327.5 203.125C324.521 203.125 321.312 204 317.875 205.75L316.719 203.062ZM316.656 226.094C316.656 228.219 317.302 229.875 318.594 231.062C319.906 232.229 321.75 232.812 324.125 232.812C327.75 232.812 330.604 231.771 332.688 229.688C334.792 227.604 335.844 224.729 335.844 221.062V217.719L329.906 217.969C325.135 218.198 321.729 218.948 319.688 220.219C317.667 221.469 316.656 223.427 316.656 226.094ZM384.312 200.375C388.062 200.375 390.854 201.385 392.688 203.406C394.521 205.406 395.438 208.531 395.438 212.781V235H392.375V212.719C392.375 209.427 391.729 207.021 390.438 205.5C389.167 203.958 387.188 203.188 384.5 203.188C381 203.188 378.417 204.146 376.75 206.062C375.104 207.979 374.281 210.99 374.281 215.094V235H371.125V211.781C371.125 206.052 368.5 203.188 363.25 203.188C359.688 203.188 357.094 204.229 355.469 206.312C353.844 208.375 353.031 211.688 353.031 216.25V235H349.938V201.031H352.5L353.156 205.688H353.344C354.281 204.021 355.604 202.719 357.312 201.781C359.042 200.844 360.958 200.375 363.062 200.375C368.417 200.375 371.854 202.385 373.375 206.406H373.5C374.604 204.469 376.083 202.979 377.938 201.938C379.812 200.896 381.938 200.375 384.312 200.375ZM166.5 279.25H144.656V298.625H165.25V301.594H144.656V322H141.469V276.312H166.5V279.25ZM186.188 287.375C187.562 287.375 189.104 287.521 190.812 287.812L190.219 290.812C188.823 290.438 187.354 290.25 185.812 290.25C182.917 290.25 180.542 291.49 178.688 293.969C176.833 296.427 175.906 299.521 175.906 303.25V322H172.812V288.031H175.438L175.75 294.156H175.969C177.406 291.615 178.896 289.865 180.438 288.906C182.021 287.885 183.938 287.375 186.188 287.375ZM195.75 304.969C195.75 299.448 197.094 295.135 199.781 292.031C202.469 288.927 206.146 287.375 210.812 287.375C215.5 287.375 219.167 288.948 221.812 292.094C224.479 295.24 225.812 299.562 225.812 305.062C225.812 310.542 224.469 314.844 221.781 317.969C219.094 321.073 215.385 322.625 210.656 322.625C210.552 322.625 210.438 322.625 210.312 322.625C206 322.625 202.49 321.031 199.781 317.844C197.094 314.656 195.75 310.521 195.75 305.438C195.75 305.271 195.75 305.115 195.75 304.969ZM210.781 319.812C214.531 319.812 217.427 318.51 219.469 315.906C221.51 313.302 222.531 309.656 222.531 304.969C222.531 300.26 221.49 296.625 219.406 294.062C217.344 291.479 214.438 290.188 210.688 290.188C206.958 290.188 204.073 291.479 202.031 294.062C200.01 296.625 199 300.25 199 304.938C199 309.604 200.021 313.26 202.062 315.906C204.125 318.51 207.031 319.812 210.781 319.812ZM250.438 287.375C258.146 287.375 262 291.51 262 299.781V322H258.938V299.969C258.938 296.573 258.219 294.094 256.781 292.531C255.365 290.969 253.135 290.188 250.094 290.188C246.073 290.188 243.104 291.208 241.188 293.25C239.292 295.292 238.344 298.625 238.344 303.25V322H235.25V288.031H237.875L238.469 292.688H238.656C240.885 289.146 244.812 287.375 250.438 287.375ZM276.281 288.031H286.25V290.719H276.281V312.219C276.281 314.823 276.74 316.75 277.656 318C278.573 319.25 280.021 319.875 282 319.875C283.979 319.875 285.677 319.708 287.094 319.375V321.875C285.594 322.375 283.865 322.625 281.906 322.625C278.906 322.625 276.688 321.823 275.25 320.219C273.833 318.615 273.125 316.094 273.125 312.656V290.719H268.094V288.906L273.125 287.5L274.688 279.812H276.281V288.031ZM308.156 322.625C303.24 322.625 299.385 321.104 296.594 318.062C293.844 315.021 292.469 310.781 292.469 305.344C292.469 299.906 293.792 295.552 296.438 292.281C299.104 289.01 302.708 287.375 307.25 287.375C311.25 287.375 314.406 288.781 316.719 291.594C319.031 294.385 320.188 298.167 320.188 302.938V305.438H295.719C295.76 310.104 296.844 313.667 298.969 316.125C301.115 318.583 304.177 319.812 308.156 319.812C310.135 319.812 311.875 319.667 313.375 319.375C314.875 319.083 316.698 318.51 318.844 317.656V320.469C316.948 321.302 315.177 321.865 313.531 322.156C311.906 322.469 310.115 322.625 308.156 322.625ZM316.906 302.688C316.906 298.75 316.042 295.677 314.312 293.469C312.583 291.24 310.146 290.125 307 290.125C303.875 290.125 301.323 291.208 299.344 293.375C297.385 295.542 296.24 298.646 295.906 302.688H316.906ZM344.75 287.375C352.458 287.375 356.312 291.51 356.312 299.781V322H353.25V299.969C353.25 296.573 352.531 294.094 351.094 292.531C349.677 290.969 347.448 290.188 344.406 290.188C340.385 290.188 337.417 291.208 335.5 293.25C333.604 295.292 332.656 298.625 332.656 303.25V322H329.562V288.031H332.188L332.781 292.688H332.969C335.198 289.146 339.125 287.375 344.75 287.375ZM394 322H391.938L391.188 316.812H390.938C388.354 320.688 384.677 322.625 379.906 322.625C375.156 322.625 371.542 321.167 369.062 318.25C366.583 315.312 365.344 310.99 365.344 305.281C365.344 299.552 366.573 295.135 369.031 292.031C371.49 288.927 375.062 287.375 379.75 287.375C382.25 287.375 384.385 287.833 386.156 288.75C387.948 289.667 389.542 291.188 390.938 293.312H391.125C391 290.688 390.938 288.115 390.938 285.594V273.375H394V322ZM390.938 305.5V304.969C390.938 299.698 390.052 295.917 388.281 293.625C386.51 291.333 383.719 290.188 379.906 290.188C376.115 290.188 373.281 291.49 371.406 294.094C369.531 296.677 368.594 300.458 368.594 305.438C368.594 315.062 372.333 319.875 379.812 319.875C383.646 319.875 386.458 318.76 388.25 316.531C390.042 314.302 390.938 310.625 390.938 305.5ZM422.844 276.312H435.188C442.479 276.312 448.021 278.219 451.812 282.031C455.625 285.844 457.531 291.5 457.531 299C457.531 306.479 455.521 312.188 451.5 316.125C447.5 320.042 441.594 322 433.781 322H422.844V276.312ZM426.031 279.125V319.188H433.594C447.24 319.188 454.062 312.406 454.062 298.844C454.062 292.323 452.396 287.406 449.062 284.094C445.75 280.781 440.875 279.125 434.438 279.125H426.031ZM480.969 322.625C476.052 322.625 472.198 321.104 469.406 318.062C466.656 315.021 465.281 310.781 465.281 305.344C465.281 299.906 466.604 295.552 469.25 292.281C471.917 289.01 475.521 287.375 480.062 287.375C484.062 287.375 487.219 288.781 489.531 291.594C491.844 294.385 493 298.167 493 302.938V305.438H468.531C468.573 310.104 469.656 313.667 471.781 316.125C473.927 318.583 476.99 319.812 480.969 319.812C482.948 319.812 484.688 319.667 486.188 319.375C487.688 319.083 489.51 318.51 491.656 317.656V320.469C489.76 321.302 487.99 321.865 486.344 322.156C484.719 322.469 482.927 322.625 480.969 322.625ZM489.719 302.688C489.719 298.75 488.854 295.677 487.125 293.469C485.396 291.24 482.958 290.125 479.812 290.125C476.688 290.125 474.135 291.208 472.156 293.375C470.198 295.542 469.052 298.646 468.719 302.688H489.719ZM512.938 322H509.812L496.688 288.031H499.875L508.656 311.125C509.844 314.167 510.719 316.76 511.281 318.906H511.469C512.281 316.115 513.156 313.5 514.094 311.062L522.875 288.031H526.062L512.938 322ZM555.062 294.094C552.354 291.198 551 288.271 551 285.312C551 282.333 551.99 279.969 553.969 278.219C555.969 276.469 558.615 275.594 561.906 275.594C565.198 275.594 567.781 276.438 569.656 278.125C571.552 279.812 572.5 282.146 572.5 285.125C572.5 287.312 571.771 289.333 570.312 291.188C568.792 293.021 566.156 295.031 562.406 297.219L576.531 311.5C579.01 308.562 580.875 304.833 582.125 300.312H585.125C583.812 305.417 581.635 309.854 578.594 313.625L586.906 322H582.688L576.656 315.844C574.74 317.74 573.031 319.115 571.531 319.969C568.49 321.74 564.802 322.625 560.469 322.625C556.135 322.625 552.729 321.552 550.25 319.406C547.771 317.24 546.531 314.24 546.531 310.406C546.531 307.531 547.292 305.094 548.812 303.094C550.333 301.073 553.198 298.927 557.406 296.656L555.062 294.094ZM569.188 285.031C569.188 283.073 568.542 281.479 567.25 280.25C565.958 279.021 564.167 278.406 561.875 278.406C559.583 278.406 557.75 279.01 556.375 280.219C555.021 281.427 554.344 283.104 554.344 285.25C554.344 286.896 554.76 288.427 555.594 289.844C556.427 291.24 558.01 293.042 560.344 295.25C563.677 293.458 565.979 291.802 567.25 290.281C568.542 288.74 569.188 286.99 569.188 285.031ZM553.375 302.562C550.979 304.562 549.781 307.094 549.781 310.156C549.781 313.219 550.74 315.594 552.656 317.281C554.573 318.969 557.271 319.812 560.75 319.812C563.438 319.812 565.875 319.365 568.062 318.469C570.271 317.573 572.458 316.042 574.625 313.875L559.531 298.719C556.74 300.198 554.688 301.479 553.375 302.562ZM645 276.312V305.875C645 311.104 643.479 315.208 640.438 318.188C637.417 321.146 633.208 322.625 627.812 322.625C622.438 322.625 618.271 321.146 615.312 318.188C612.354 315.229 610.875 311.083 610.875 305.75V276.312H614.094V305.875C614.094 310.25 615.312 313.677 617.75 316.156C620.188 318.594 623.604 319.812 628 319.812C632.396 319.812 635.802 318.615 638.219 316.219C640.615 313.823 641.812 310.479 641.812 306.188V276.312H645ZM660.656 322H657.469V276.312H660.656V322ZM690.219 276.312H702.562C709.854 276.312 715.396 278.219 719.188 282.031C723 285.844 724.906 291.5 724.906 299C724.906 306.479 722.896 312.188 718.875 316.125C714.875 320.042 708.969 322 701.156 322H690.219V276.312ZM693.406 279.125V319.188H700.969C714.615 319.188 721.438 312.406 721.438 298.844C721.438 292.323 719.771 287.406 716.438 284.094C713.125 280.781 708.25 279.125 701.812 279.125H693.406ZM748.344 322.625C743.427 322.625 739.573 321.104 736.781 318.062C734.031 315.021 732.656 310.781 732.656 305.344C732.656 299.906 733.979 295.552 736.625 292.281C739.292 289.01 742.896 287.375 747.438 287.375C751.438 287.375 754.594 288.781 756.906 291.594C759.219 294.385 760.375 298.167 760.375 302.938V305.438H735.906C735.948 310.104 737.031 313.667 739.156 316.125C741.302 318.583 744.365 319.812 748.344 319.812C750.323 319.812 752.062 319.667 753.562 319.375C755.062 319.083 756.885 318.51 759.031 317.656V320.469C757.135 321.302 755.365 321.865 753.719 322.156C752.094 322.469 750.302 322.625 748.344 322.625ZM757.094 302.688C757.094 298.75 756.229 295.677 754.5 293.469C752.771 291.24 750.333 290.125 747.188 290.125C744.062 290.125 741.51 291.208 739.531 293.375C737.573 295.542 736.427 298.646 736.094 302.688H757.094ZM766.688 317.188C770.021 318.896 773.479 319.75 777.062 319.75C780.646 319.75 783.323 319.208 785.094 318.125C786.865 317.021 787.75 315.562 787.75 313.75C787.75 311.938 787.052 310.458 785.656 309.312C784.26 308.146 781.938 306.99 778.688 305.844C775.438 304.677 773.104 303.635 771.688 302.719C770.271 301.802 769.219 300.781 768.531 299.656C767.865 298.531 767.531 297.188 767.531 295.625C767.531 293.104 768.594 291.094 770.719 289.594C772.885 288.115 775.833 287.375 779.562 287.375C783.312 287.375 786.833 288.062 790.125 289.438L788.969 292.25C785.552 290.875 782.458 290.188 779.688 290.188C776.917 290.188 774.719 290.646 773.094 291.562C771.469 292.479 770.656 293.792 770.656 295.5C770.656 297.188 771.281 298.562 772.531 299.625C773.802 300.688 776.115 301.823 779.469 303.031C782.823 304.219 785.208 305.271 786.625 306.188C789.417 307.938 790.812 310.302 790.812 313.281C790.812 316.24 789.656 318.542 787.344 320.188C785.031 321.812 781.667 322.625 777.25 322.625C772.854 322.625 769.333 321.927 766.688 320.531V317.188ZM801.094 275.594C801.74 275.594 802.24 275.854 802.594 276.375C802.969 276.896 803.156 277.635 803.156 278.594C803.156 279.531 802.969 280.271 802.594 280.812C802.24 281.354 801.74 281.625 801.094 281.625C799.781 281.625 799.125 280.625 799.125 278.625C799.125 276.604 799.781 275.594 801.094 275.594ZM802.656 322H799.562V288.031H802.656V322ZM822.656 317.312H828.594C832.302 317.312 835.125 318.062 837.062 319.562C839.021 321.042 840 323.24 840 326.156C840 329.74 838.542 332.5 835.625 334.438C832.729 336.396 828.594 337.375 823.219 337.375C818.969 337.375 815.667 336.552 813.312 334.906C810.958 333.26 809.781 330.969 809.781 328.031C809.781 325.74 810.49 323.812 811.906 322.25C813.344 320.708 815.323 319.656 817.844 319.094C816.802 318.635 815.979 318 815.375 317.188C814.771 316.375 814.469 315.458 814.469 314.438C814.469 312.146 815.917 310.146 818.812 308.438C816.833 307.625 815.292 306.354 814.188 304.625C813.083 302.875 812.531 300.875 812.531 298.625C812.531 295.208 813.604 292.479 815.75 290.438C817.917 288.396 820.833 287.375 824.5 287.375C826.75 287.375 828.479 287.594 829.688 288.031H840.562V290.188L833.531 290.625C835.406 292.958 836.344 295.521 836.344 298.312C836.344 301.604 835.26 304.26 833.094 306.281C830.927 308.302 828 309.312 824.312 309.312C822.771 309.312 821.688 309.25 821.062 309.125C818.542 310.438 817.281 312.125 817.281 314.188C817.281 315.271 817.698 316.062 818.531 316.562C819.365 317.062 820.74 317.312 822.656 317.312ZM833.219 298.406C833.219 295.615 832.448 293.49 830.906 292.031C829.385 290.552 827.24 289.812 824.469 289.812C821.698 289.812 819.531 290.594 817.969 292.156C816.427 293.719 815.656 295.844 815.656 298.531C815.656 301.219 816.448 303.292 818.031 304.75C819.635 306.188 821.812 306.906 824.562 306.906C827.312 306.906 829.438 306.188 830.938 304.75C832.458 303.312 833.219 301.198 833.219 298.406ZM827.969 320.406H822.406C816.177 320.406 813.062 322.854 813.062 327.75C813.062 332.417 816.531 334.75 823.469 334.75C832.385 334.75 836.844 331.906 836.844 326.219C836.844 324.177 836.146 322.698 834.75 321.781C833.354 320.865 831.094 320.406 827.969 320.406ZM862.75 287.375C870.458 287.375 874.312 291.51 874.312 299.781V322H871.25V299.969C871.25 296.573 870.531 294.094 869.094 292.531C867.677 290.969 865.448 290.188 862.406 290.188C858.385 290.188 855.417 291.208 853.5 293.25C851.604 295.292 850.656 298.625 850.656 303.25V322H847.562V288.031H850.188L850.781 292.688H850.969C853.198 289.146 857.125 287.375 862.75 287.375ZM899.031 322.625C894.115 322.625 890.26 321.104 887.469 318.062C884.719 315.021 883.344 310.781 883.344 305.344C883.344 299.906 884.667 295.552 887.312 292.281C889.979 289.01 893.583 287.375 898.125 287.375C902.125 287.375 905.281 288.781 907.594 291.594C909.906 294.385 911.062 298.167 911.062 302.938V305.438H886.594C886.635 310.104 887.719 313.667 889.844 316.125C891.99 318.583 895.052 319.812 899.031 319.812C901.01 319.812 902.75 319.667 904.25 319.375C905.75 319.083 907.573 318.51 909.719 317.656V320.469C907.823 321.302 906.052 321.865 904.406 322.156C902.781 322.469 900.99 322.625 899.031 322.625ZM907.781 302.688C907.781 298.75 906.917 295.677 905.188 293.469C903.458 291.24 901.021 290.125 897.875 290.125C894.75 290.125 892.198 291.208 890.219 293.375C888.26 295.542 887.115 298.646 886.781 302.688H907.781ZM933.812 287.375C935.188 287.375 936.729 287.521 938.438 287.812L937.844 290.812C936.448 290.438 934.979 290.25 933.438 290.25C930.542 290.25 928.167 291.49 926.312 293.969C924.458 296.427 923.531 299.521 923.531 303.25V322H920.438V288.031H923.062L923.375 294.156H923.594C925.031 291.615 926.521 289.865 928.062 288.906C929.646 287.885 931.562 287.375 933.812 287.375ZM947.25 316.5C948.958 316.5 949.812 317.521 949.812 319.562C949.812 321.604 948.958 322.625 947.25 322.625C945.583 322.625 944.75 321.604 944.75 319.562C944.75 317.521 945.583 316.5 947.25 316.5Z" fill="white"/>
<path d="M441.812 235.625C435.458 235.625 430.469 233.521 426.844 229.312C423.219 225.104 421.406 219.354 421.406 212.062C421.406 204.75 423.229 199.01 426.875 194.844C430.542 190.677 435.552 188.594 441.906 188.594C448.281 188.594 453.26 190.698 456.844 194.906C460.448 199.115 462.25 204.844 462.25 212.094C462.25 218.198 460.938 223.271 458.312 227.312C455.688 231.312 452.052 233.875 447.406 235L457.812 245.875H452.625L443.812 235.562L442.781 235.625H441.812ZM458.781 212.125C458.781 205.521 457.323 200.469 454.406 196.969C451.51 193.448 447.344 191.688 441.906 191.688C436.469 191.688 432.271 193.458 429.312 197C426.354 200.542 424.875 205.573 424.875 212.094C424.875 218.615 426.333 223.667 429.25 227.25C432.167 230.833 436.354 232.625 441.812 232.625C447.292 232.625 451.49 230.854 454.406 227.312C457.323 223.771 458.781 218.708 458.781 212.125ZM498.375 235H495.75L495.188 230.312H495C492.771 233.854 488.844 235.625 483.219 235.625C475.49 235.625 471.625 231.49 471.625 223.219V201.031H474.688V223.031C474.688 226.427 475.396 228.906 476.812 230.469C478.25 232.031 480.49 232.812 483.531 232.812C487.552 232.812 490.521 231.792 492.438 229.75C494.354 227.708 495.312 224.385 495.312 219.781V201.031H498.375V235ZM510.469 203.062C514.198 201.312 517.906 200.438 521.594 200.438C525.302 200.438 528.073 201.417 529.906 203.375C531.74 205.312 532.656 208.323 532.656 212.406V235H530.375L529.594 229.625H529.344C527.615 231.833 525.854 233.385 524.062 234.281C522.292 235.177 520.167 235.625 517.688 235.625C514.354 235.625 511.75 234.781 509.875 233.094C508.021 231.385 507.094 228.948 507.094 225.781C507.094 222.594 508.479 220.083 511.25 218.25C514.021 216.417 518.021 215.448 523.25 215.344L529.719 215.156V212.906C529.719 209.615 529.052 207.167 527.719 205.562C526.385 203.938 524.229 203.125 521.25 203.125C518.271 203.125 515.062 204 511.625 205.75L510.469 203.062ZM510.406 226.094C510.406 228.219 511.052 229.875 512.344 231.062C513.656 232.229 515.5 232.812 517.875 232.812C521.5 232.812 524.354 231.771 526.438 229.688C528.542 227.604 529.594 224.729 529.594 221.062V217.719L523.656 217.969C518.885 218.198 515.479 218.948 513.438 220.219C511.417 221.469 510.406 223.427 510.406 226.094ZM570.375 235H568.312L567.562 229.812H567.312C564.729 233.688 561.052 235.625 556.281 235.625C551.531 235.625 547.917 234.167 545.438 231.25C542.958 228.312 541.719 223.99 541.719 218.281C541.719 212.552 542.948 208.135 545.406 205.031C547.865 201.927 551.438 200.375 556.125 200.375C558.625 200.375 560.76 200.833 562.531 201.75C564.323 202.667 565.917 204.188 567.312 206.312H567.5C567.375 203.688 567.312 201.115 567.312 198.594V186.375H570.375V235ZM567.312 218.5V217.969C567.312 212.698 566.427 208.917 564.656 206.625C562.885 204.333 560.094 203.188 556.281 203.188C552.49 203.188 549.656 204.49 547.781 207.094C545.906 209.677 544.969 213.458 544.969 218.438C544.969 228.062 548.708 232.875 556.188 232.875C560.021 232.875 562.833 231.76 564.625 229.531C566.417 227.302 567.312 223.625 567.312 218.5ZM595.188 200.375C596.562 200.375 598.104 200.521 599.812 200.812L599.219 203.812C597.823 203.438 596.354 203.25 594.812 203.25C591.917 203.25 589.542 204.49 587.688 206.969C585.833 209.427 584.906 212.521 584.906 216.25V235H581.812V201.031H584.438L584.75 207.156H584.969C586.406 204.615 587.896 202.865 589.438 201.906C591.021 200.885 592.938 200.375 595.188 200.375ZM607.469 203.062C611.198 201.312 614.906 200.438 618.594 200.438C622.302 200.438 625.073 201.417 626.906 203.375C628.74 205.312 629.656 208.323 629.656 212.406V235H627.375L626.594 229.625H626.344C624.615 231.833 622.854 233.385 621.062 234.281C619.292 235.177 617.167 235.625 614.688 235.625C611.354 235.625 608.75 234.781 606.875 233.094C605.021 231.385 604.094 228.948 604.094 225.781C604.094 222.594 605.479 220.083 608.25 218.25C611.021 216.417 615.021 215.448 620.25 215.344L626.719 215.156V212.906C626.719 209.615 626.052 207.167 624.719 205.562C623.385 203.938 621.229 203.125 618.25 203.125C615.271 203.125 612.062 204 608.625 205.75L607.469 203.062ZM607.406 226.094C607.406 228.219 608.052 229.875 609.344 231.062C610.656 232.229 612.5 232.812 614.875 232.812C618.5 232.812 621.354 231.771 623.438 229.688C625.542 227.604 626.594 224.729 626.594 221.062V217.719L620.656 217.969C615.885 218.198 612.479 218.948 610.438 220.219C608.417 221.469 607.406 223.427 607.406 226.094ZM667.375 235H665.312L664.562 229.812H664.312C661.729 233.688 658.052 235.625 653.281 235.625C648.531 235.625 644.917 234.167 642.438 231.25C639.958 228.312 638.719 223.99 638.719 218.281C638.719 212.552 639.948 208.135 642.406 205.031C644.865 201.927 648.438 200.375 653.125 200.375C655.625 200.375 657.76 200.833 659.531 201.75C661.323 202.667 662.917 204.188 664.312 206.312H664.5C664.375 203.688 664.312 201.115 664.312 198.594V186.375H667.375V235ZM664.312 218.5V217.969C664.312 212.698 663.427 208.917 661.656 206.625C659.885 204.333 657.094 203.188 653.281 203.188C649.49 203.188 646.656 204.49 644.781 207.094C642.906 209.677 641.969 213.458 641.969 218.438C641.969 228.062 645.708 232.875 653.188 232.875C657.021 232.875 659.833 231.76 661.625 229.531C663.417 227.302 664.312 223.625 664.312 218.5ZM676.812 217.969C676.812 212.448 678.156 208.135 680.844 205.031C683.531 201.927 687.208 200.375 691.875 200.375C696.562 200.375 700.229 201.948 702.875 205.094C705.542 208.24 706.875 212.562 706.875 218.062C706.875 223.542 705.531 227.844 702.844 230.969C700.156 234.073 696.448 235.625 691.719 235.625C691.615 235.625 691.5 235.625 691.375 235.625C687.062 235.625 683.552 234.031 680.844 230.844C678.156 227.656 676.812 223.521 676.812 218.438C676.812 218.271 676.812 218.115 676.812 217.969ZM691.844 232.812C695.594 232.812 698.49 231.51 700.531 228.906C702.573 226.302 703.594 222.656 703.594 217.969C703.594 213.26 702.552 209.625 700.469 207.062C698.406 204.479 695.5 203.188 691.75 203.188C688.021 203.188 685.135 204.479 683.094 207.062C681.073 209.625 680.062 213.25 680.062 217.938C680.062 222.604 681.083 226.26 683.125 228.906C685.188 231.51 688.094 232.812 691.844 232.812ZM718.188 229.5C719.896 229.5 720.75 230.521 720.75 232.562C720.75 234.604 719.896 235.625 718.188 235.625C716.521 235.625 715.688 234.604 715.688 232.562C715.688 230.521 716.521 229.5 718.188 229.5Z" fill="#E1006C"/>
</g>
<path d="M8.8623 77.5547C10.8643 77.5547 11.8652 78.751 11.8652 81.1436C11.8652 83.5361 10.8643 84.7324 8.8623 84.7324C6.90918 84.7324 5.93262 83.5361 5.93262 81.1436C5.93262 78.751 6.90918 77.5547 8.8623 77.5547ZM26.3306 29.6177C27.0874 29.6177 27.6733 29.9229 28.0884 30.5332C28.5278 31.1436 28.7476 32.0103 28.7476 33.1333C28.7476 34.2319 28.5278 35.0986 28.0884 35.7334C27.6733 36.3682 27.0874 36.6855 26.3306 36.6855C24.7925 36.6855 24.0234 35.5137 24.0234 33.1699C24.0234 30.8018 24.7925 29.6177 26.3306 29.6177ZM28.1616 84H24.5361V44.1929H28.1616V84ZM59.3262 43.4238C68.3594 43.4238 72.876 48.27 72.876 57.9624V84H69.2871V58.1821C69.2871 54.2026 68.4448 51.2974 66.7603 49.4663C65.1001 47.6353 62.4878 46.7197 58.9233 46.7197C54.2114 46.7197 50.7324 47.916 48.4863 50.3086C46.2646 52.7012 45.1538 56.6074 45.1538 62.0273V84H41.5283V44.1929H44.6045L45.3003 49.6494H45.52C48.1323 45.499 52.7344 43.4238 59.3262 43.4238ZM89.6118 44.1929H101.294V47.3423H89.6118V72.5376C89.6118 75.5894 90.1489 77.8477 91.2231 79.3125C92.2974 80.7773 93.9941 81.5098 96.3135 81.5098C98.6328 81.5098 100.623 81.3145 102.283 80.9238V83.8535C100.525 84.4395 98.4985 84.7324 96.2036 84.7324C92.688 84.7324 90.0879 83.7925 88.4033 81.9126C86.7432 80.0327 85.9131 77.0786 85.9131 73.0503V47.3423H80.0171V45.2183L85.9131 43.5703L87.7441 34.5615H89.6118V44.1929ZM126.562 43.4238C128.174 43.4238 129.98 43.5947 131.982 43.9365L131.287 47.4521C129.651 47.0127 127.93 46.793 126.123 46.793C122.729 46.793 119.946 48.2456 117.773 51.1509C115.601 54.0317 114.514 57.6572 114.514 62.0273V84H110.889V44.1929H113.965L114.331 51.3706H114.587C116.272 48.3921 118.018 46.3413 119.824 45.2183C121.68 44.022 123.926 43.4238 126.562 43.4238ZM137.769 64.0415C137.769 57.5718 139.343 52.5181 142.493 48.8804C145.642 45.2427 149.951 43.4238 155.42 43.4238C160.913 43.4238 165.21 45.2671 168.311 48.9536C171.436 52.6401 172.998 57.7061 172.998 64.1514C172.998 70.5723 171.423 75.6138 168.274 79.2759C165.125 82.9136 160.779 84.7324 155.237 84.7324C155.115 84.7324 154.98 84.7324 154.834 84.7324C149.78 84.7324 145.667 82.8647 142.493 79.1294C139.343 75.394 137.769 70.5479 137.769 64.5908C137.769 64.3955 137.769 64.2124 137.769 64.0415ZM155.383 81.4365C159.778 81.4365 163.171 79.9106 165.564 76.8589C167.957 73.8071 169.153 69.5347 169.153 64.0415C169.153 58.5239 167.932 54.2637 165.491 51.2607C163.074 48.2334 159.668 46.7197 155.273 46.7197C150.903 46.7197 147.522 48.2334 145.129 51.2607C142.761 54.2637 141.577 58.5117 141.577 64.0049C141.577 69.4736 142.773 73.7583 145.166 76.8589C147.583 79.9106 150.989 81.4365 155.383 81.4365ZM184.351 63.3823C184.351 75.1987 188.062 86.0264 195.483 95.8652H191.418C187.83 91.6904 185.095 86.8442 183.215 81.3267C181.335 75.7847 180.396 69.8032 180.396 63.3823C180.396 56.9614 181.335 50.9312 183.215 45.2915C185.12 39.6519 187.854 34.708 191.418 30.46H195.557C191.992 34.8301 189.233 39.835 187.28 45.4746C185.327 51.1143 184.351 57.0835 184.351 63.3823ZM535.181 30.46C538.794 34.7812 541.528 39.7739 543.384 45.438C545.264 51.0776 546.204 57.0957 546.204 63.4922C546.204 69.8887 545.264 75.8579 543.384 81.3999C541.504 86.9175 538.77 91.7393 535.181 95.8652H531.116C538.538 86.0264 542.249 75.1987 542.249 63.3823C542.249 57.0591 541.272 51.0898 539.319 45.4746C537.39 39.8594 534.631 34.8545 531.042 30.46H535.181ZM602.454 41.6294V52.7988C602.454 55.9482 601.917 58.3164 600.842 59.9033C599.792 61.4658 598.059 62.5034 595.642 63.0161V63.3091C598.01 63.7974 599.731 64.8228 600.806 66.3853C601.904 67.9478 602.454 70.2183 602.454 73.1968V84.9888C602.454 87.5278 603.186 89.3955 604.651 90.5918C606.14 91.8125 608.606 92.4595 612.048 92.5327V95.8652C607.288 95.8652 603.894 94.9497 601.868 93.1187C599.866 91.2876 598.865 88.4678 598.865 84.6592V72.3179C598.865 67.3374 596.057 64.7861 590.442 64.6641V61.7344C593.396 61.6855 595.532 61.0752 596.851 59.9033C598.193 58.707 598.865 56.8882 598.865 54.4468V41.6294C598.865 34.3296 603.259 30.6064 612.048 30.46V33.7559C608.704 33.8779 606.262 34.5859 604.724 35.8799C603.21 37.1494 602.454 39.0659 602.454 41.6294Z" fill="#E1006C"/>
<path d="M218.665 84.7324C213.416 84.7324 209.351 82.9868 206.47 79.4956C203.613 76.0044 202.185 70.9507 202.185 64.3345C202.185 57.7183 203.625 52.5791 206.506 48.917C209.387 45.2549 213.513 43.4238 218.884 43.4238C224.646 43.4238 228.955 45.5479 231.812 49.7959H232.031L232.69 44.1929H235.767V102.018H232.178V86.8564C232.178 83.8779 232.251 80.8506 232.397 77.7744H232.178C229.297 82.4131 224.792 84.7324 218.665 84.7324ZM232.178 64.1147V63.6753C232.178 57.6938 231.14 53.3726 229.065 50.7114C226.965 48.0503 223.706 46.7197 219.287 46.7197C214.893 46.7197 211.572 48.2334 209.326 51.2607C207.104 54.2881 205.994 58.6582 205.994 64.3711C205.994 70.084 207.08 74.3687 209.253 77.2251C211.426 80.0815 214.587 81.5098 218.738 81.5098C223.572 81.5098 227.014 80.1792 229.065 77.5181C231.14 74.8569 232.178 70.3892 232.178 64.1147ZM280.078 84H277.002L276.343 78.5068H276.123C273.511 82.6572 268.909 84.7324 262.317 84.7324C253.259 84.7324 248.73 79.8862 248.73 70.1938V44.1929H252.319V69.9741C252.319 73.9536 253.149 76.8589 254.81 78.6899C256.494 80.521 259.119 81.4365 262.683 81.4365C267.395 81.4365 270.874 80.2402 273.12 77.8477C275.366 75.4551 276.489 71.561 276.489 66.1655V44.1929H280.078V84ZM294.25 46.5732C298.621 44.5225 302.966 43.4971 307.288 43.4971C311.633 43.4971 314.88 44.6445 317.029 46.9395C319.177 49.21 320.251 52.7378 320.251 57.5229V84H317.578L316.663 77.7012H316.37C314.343 80.2891 312.28 82.1079 310.181 83.1577C308.105 84.2075 305.615 84.7324 302.71 84.7324C298.804 84.7324 295.752 83.7437 293.555 81.7661C291.382 79.7642 290.295 76.9077 290.295 73.1968C290.295 69.4614 291.919 66.5195 295.166 64.3711C298.413 62.2227 303.101 61.0874 309.229 60.9653L316.809 60.7456V58.1089C316.809 54.2515 316.028 51.3828 314.465 49.5029C312.903 47.5986 310.376 46.6465 306.885 46.6465C303.394 46.6465 299.634 47.6719 295.605 49.7227L294.25 46.5732ZM294.177 73.563C294.177 76.0532 294.934 77.9941 296.448 79.3857C297.986 80.7529 300.146 81.4365 302.93 81.4365C307.178 81.4365 310.522 80.2158 312.964 77.7744C315.43 75.333 316.663 71.9639 316.663 67.667V63.7485L309.705 64.0415C304.114 64.3101 300.122 65.189 297.729 66.6782C295.361 68.1431 294.177 70.438 294.177 73.563ZM364.453 84H362.036L361.157 77.9209H360.864C357.837 82.4619 353.528 84.7324 347.937 84.7324C342.371 84.7324 338.135 83.0234 335.229 79.6055C332.324 76.1631 330.872 71.0972 330.872 64.4077C330.872 57.6938 332.312 52.5181 335.193 48.8804C338.074 45.2427 342.261 43.4238 347.754 43.4238C350.684 43.4238 353.186 43.9609 355.261 45.0352C357.361 46.1094 359.229 47.8916 360.864 50.3818H361.084C360.938 47.3057 360.864 44.2905 360.864 41.3364V27.0176H364.453V84ZM360.864 64.6641V64.0415C360.864 57.8647 359.827 53.4336 357.751 50.748C355.676 48.0625 352.405 46.7197 347.937 46.7197C343.494 46.7197 340.173 48.2456 337.976 51.2974C335.779 54.3247 334.68 58.7559 334.68 64.5908C334.68 75.8701 339.062 81.5098 347.827 81.5098C352.319 81.5098 355.615 80.2036 357.715 77.5913C359.814 74.979 360.864 70.6699 360.864 64.6641ZM393.53 43.4238C395.142 43.4238 396.948 43.5947 398.95 43.9365L398.254 47.4521C396.619 47.0127 394.897 46.793 393.091 46.793C389.697 46.793 386.914 48.2456 384.741 51.1509C382.568 54.0317 381.482 57.6572 381.482 62.0273V84H377.856V44.1929H380.933L381.299 51.3706H381.555C383.24 48.3921 384.985 46.3413 386.792 45.2183C388.647 44.022 390.894 43.4238 393.53 43.4238ZM407.922 46.5732C412.292 44.5225 416.638 43.4971 420.959 43.4971C425.305 43.4971 428.552 44.6445 430.701 46.9395C432.849 49.21 433.923 52.7378 433.923 57.5229V84H431.25L430.334 77.7012H430.042C428.015 80.2891 425.952 82.1079 423.853 83.1577C421.777 84.2075 419.287 84.7324 416.382 84.7324C412.476 84.7324 409.424 83.7437 407.227 81.7661C405.054 79.7642 403.967 76.9077 403.967 73.1968C403.967 69.4614 405.591 66.5195 408.838 64.3711C412.085 62.2227 416.772 61.0874 422.9 60.9653L430.481 60.7456V58.1089C430.481 54.2515 429.7 51.3828 428.137 49.5029C426.575 47.5986 424.048 46.6465 420.557 46.6465C417.065 46.6465 413.306 47.6719 409.277 49.7227L407.922 46.5732ZM407.849 73.563C407.849 76.0532 408.606 77.9941 410.12 79.3857C411.658 80.7529 413.818 81.4365 416.602 81.4365C420.85 81.4365 424.194 80.2158 426.636 77.7744C429.102 75.333 430.334 71.9639 430.334 67.667V63.7485L423.376 64.0415C417.786 64.3101 413.794 65.189 411.401 66.6782C409.033 68.1431 407.849 70.438 407.849 73.563ZM478.125 84H475.708L474.829 77.9209H474.536C471.509 82.4619 467.2 84.7324 461.609 84.7324C456.042 84.7324 451.807 83.0234 448.901 79.6055C445.996 76.1631 444.543 71.0972 444.543 64.4077C444.543 57.6938 445.984 52.5181 448.865 48.8804C451.746 45.2427 455.933 43.4238 461.426 43.4238C464.355 43.4238 466.858 43.9609 468.933 45.0352C471.033 46.1094 472.9 47.8916 474.536 50.3818H474.756C474.609 47.3057 474.536 44.2905 474.536 41.3364V27.0176H478.125V84ZM474.536 64.6641V64.0415C474.536 57.8647 473.499 53.4336 471.423 50.748C469.348 48.0625 466.077 46.7197 461.609 46.7197C457.166 46.7197 453.845 48.2456 451.648 51.2974C449.451 54.3247 448.352 58.7559 448.352 64.5908C448.352 75.8701 452.734 81.5098 461.499 81.5098C465.991 81.5098 469.287 80.2036 471.387 77.5913C473.486 74.979 474.536 70.6699 474.536 64.6641ZM489.185 64.0415C489.185 57.5718 490.759 52.5181 493.909 48.8804C497.058 45.2427 501.367 43.4238 506.836 43.4238C512.329 43.4238 516.626 45.2671 519.727 48.9536C522.852 52.6401 524.414 57.7061 524.414 64.1514C524.414 70.5723 522.839 75.6138 519.69 79.2759C516.541 82.9136 512.195 84.7324 506.653 84.7324C506.531 84.7324 506.396 84.7324 506.25 84.7324C501.196 84.7324 497.083 82.8647 493.909 79.1294C490.759 75.394 489.185 70.5479 489.185 64.5908C489.185 64.3955 489.185 64.2124 489.185 64.0415ZM506.799 81.4365C511.194 81.4365 514.587 79.9106 516.98 76.8589C519.373 73.8071 520.569 69.5347 520.569 64.0415C520.569 58.5239 519.348 54.2637 516.907 51.2607C514.49 48.2334 511.084 46.7197 506.689 46.7197C502.319 46.7197 498.938 48.2334 496.545 51.2607C494.177 54.2637 492.993 58.5117 492.993 64.0049C492.993 69.4736 494.189 73.7583 496.582 76.8589C498.999 79.9106 502.405 81.4365 506.799 81.4365Z" fill="white"/>
<path d="M2.63672 387.46C6.90918 387.46 10.1685 388.412 12.4146 390.316C14.6851 392.221 15.8203 394.992 15.8203 398.629V411.447C15.8203 413.888 16.4917 415.707 17.8345 416.903C19.1772 418.075 21.3135 418.686 24.2432 418.734V421.664C18.6279 421.786 15.8203 424.337 15.8203 429.318V441.659C15.8203 445.443 14.8071 448.251 12.7808 450.082C10.7788 451.938 7.39746 452.865 2.63672 452.865V449.533C6.03027 449.484 8.47168 448.849 9.96094 447.628C11.4746 446.408 12.2314 444.528 12.2314 441.989V430.197C12.2314 427.218 12.7686 424.948 13.8428 423.385C14.9414 421.823 16.6748 420.797 19.043 420.309V420.016C16.6504 419.503 14.917 418.466 13.8428 416.903C12.7686 415.341 12.2314 412.973 12.2314 409.799V398.629C12.2314 396.09 11.4624 394.174 9.92432 392.88C8.41064 391.586 5.98145 390.878 2.63672 390.756V387.46Z" fill="#E1006C"/>
<defs>
<filter id="filter0_d_164_2" x="137.469" y="186.375" width="816.344" height="159" filterUnits="userSpaceOnUse" color-interpolation-filters="sRGB">
<feFlood flood-opacity="0" result="BackgroundImageFix"/>
<feColorMatrix in="SourceAlpha" type="matrix" values="0 0 0 0 0 0 0 0 0 0 0 0 0 0 0 0 0 0 127 0" result="hardAlpha"/>
<feOffset dy="4"/>
<feGaussianBlur stdDeviation="2"/>
<feComposite in2="hardAlpha" operator="out"/>
<feColorMatrix type="matrix" values="0 0 0 0 0 0 0 0 0 0 0 0 0 0 0 0 0 0 0.25 0"/>
<feBlend mode="normal" in2="BackgroundImageFix" result="effect1_dropShadow_164_2"/>
<feBlend mode="normal" in="SourceGraphic" in2="effect1_dropShadow_164_2" result="shape"/>
</filter>
</defs>
</svg>
