<svg width="2269" height="192" viewBox="0 0 2269 192" fill="none" xmlns="http://www.w3.org/2000/svg">
<path d="M-3 17.2007L51.2756 19.0007C105.551 20.9007 214.102 24.5007 322.148 25.4007C430.447 26.2007 537.989 24.2007 646.287 17.7007C754.333 11.2007 862.885 0.200703 970.931 0.000702947C1079.23 -0.0992971 1186.77 10.5007 1295.07 12.2007C1403.12 13.9007 1511.67 6.5007 1619.71 6.0007C1728.01 5.5007 1835.55 11.9007 1943.85 17.7007C2051.9 23.5007 2160.45 28.9007 2214.72 31.5007L2269 34.2007V191.201H2214.72C2160.45 191.201 2051.9 191.201 1943.85 191.201C1835.55 191.201 1728.01 191.201 1619.71 191.201C1511.67 191.201 1403.12 191.201 1295.07 191.201C1186.77 191.201 1079.23 191.201 970.931 191.201C862.885 191.201 754.333 191.201 646.287 191.201C537.989 191.201 430.447 191.201 322.148 191.201C214.102 191.201 105.551 191.201 51.2756 191.201H-3L-3 17.2007Z" fill="#C62368"/>
<path d="M-3 37.2007L51.2756 35.2007C105.551 33.2007 214.102 29.2007 322.148 27.9007C430.447 26.5007 537.989 27.9007 646.287 23.4007C754.333 18.9007 862.885 8.50071 970.931 3.50071C1079.23 -1.49929 1186.77 -1.09929 1295.07 7.00071C1403.12 15.2007 1511.67 31.2007 1619.71 44.2007C1728.01 57.2007 1835.55 67.2007 1943.85 66.2007C2051.9 65.2007 2160.45 53.2007 2214.72 47.2007L2269 41.2007V191.201H2214.72C2160.45 191.201 2051.9 191.201 1943.85 191.201C1835.55 191.201 1728.01 191.201 1619.71 191.201C1511.67 191.201 1403.12 191.201 1295.07 191.201C1186.77 191.201 1079.23 191.201 970.931 191.201C862.885 191.201 754.333 191.201 646.287 191.201C537.989 191.201 430.447 191.201 322.148 191.201C214.102 191.201 105.551 191.201 51.2756 191.201H-3L-3 37.2007Z" fill="#94244F"/>
<path d="M-3 56.2006L51.2756 57.9007C105.551 59.5007 214.102 62.9006 322.148 61.2006C430.447 59.5006 537.989 52.9007 646.287 47.9007C754.333 42.9007 862.885 39.5007 970.931 42.9007C1079.23 46.2007 1186.77 56.2006 1295.07 60.0006C1403.12 63.9006 1511.67 61.5006 1619.71 56.5006C1728.01 51.5006 1835.55 43.9006 1943.85 41.0006C2051.9 38.2006 2160.45 40.2006 2214.72 41.2006L2269 42.2006V191.201H2214.72C2160.45 191.201 2051.9 191.201 1943.85 191.201C1835.55 191.201 1728.01 191.201 1619.71 191.201C1511.67 191.201 1403.12 191.201 1295.07 191.201C1186.77 191.201 1079.23 191.201 970.931 191.201C862.885 191.201 754.333 191.201 646.287 191.201C537.989 191.201 430.447 191.201 322.148 191.201C214.102 191.201 105.551 191.201 51.2756 191.201H-3L-3 56.2006Z" fill="#642138"/>
<path d="M-3 121.201L51.2756 113.401C105.551 105.501 214.102 89.9007 322.148 84.9007C430.447 79.9007 537.989 85.5007 646.287 93.5007C754.333 101.501 862.885 111.901 970.931 113.701C1079.23 115.501 1186.77 108.901 1295.07 108.901C1403.12 108.901 1511.67 115.501 1619.71 117.501C1728.01 119.501 1835.55 116.901 1943.85 113.701C2051.9 110.501 2160.45 106.901 2214.72 105.001L2269 103.201V191.201L2214.72 191.201C2160.45 191.201 2051.9 191.201 1943.85 191.201C1835.55 191.201 1728.01 191.201 1619.71 191.201C1511.67 191.201 1403.12 191.201 1295.07 191.201C1186.77 191.201 1079.23 191.201 970.931 191.201C862.885 191.201 754.333 191.201 646.287 191.201C537.989 191.201 430.447 191.201 322.148 191.201C214.102 191.201 105.551 191.201 51.2756 191.201H-3L-3 121.201Z" fill="#381922"/>
<path d="M-3 139.201L51.2756 134.701C105.551 130.201 214.102 121.201 322.148 121.701C430.447 122.201 537.989 132.201 646.287 135.701C754.333 139.201 862.885 136.201 970.931 132.701C1079.23 129.201 1186.77 125.201 1295.07 124.201C1403.12 123.201 1511.67 125.201 1619.71 128.701C1728.01 132.201 1835.55 137.201 1943.85 135.901C2051.9 134.501 2160.45 126.901 2214.72 123.001L2269 119.201V191.201L2214.72 191.201C2160.45 191.201 2051.9 191.201 1943.85 191.201C1835.55 191.201 1728.01 191.201 1619.71 191.201C1511.67 191.201 1403.12 191.201 1295.07 191.201C1186.77 191.201 1079.23 191.201 970.931 191.201C862.885 191.201 754.333 191.201 646.287 191.201C537.989 191.201 430.447 191.201 322.148 191.201C214.102 191.201 105.551 191.201 51.2756 191.201H-3L-3 139.201Z" fill="#0C0C0C"/>
</svg>
